<svg t="1636094030855" class="icon" viewBox="0 0 1024 1024" version="1.1" xmlns="http://www.w3.org/2000/svg" p-id="5103" width="200" height="200"><path d="M860.032 693.632h-182.08c7.488 17.408 14.72 38.592 18.048 60.608 5.952 39.872 4.992 87.296-18.368 129.088-21.76 38.848-50.304 60.928-83.52 61.312-30.72 0.384-53.888-18.176-65.728-33.408a199.296 199.296 0 0 1-32.064-59.2l-1.92-5.248c-5.44-14.912-10.88-29.888-23.04-51.456-19.712-34.816-48.832-56.128-77.696-74.304a391.68 391.68 0 0 0-30.976-17.984V150.592a4617.408 4617.408 0 0 1 351.872 5.312c51.264 2.752 100.672 28.608 127.488 76.096 24.32 43.136 55.168 108.16 74.368 187.264 20.416 84.096 24.64 152.64 24.576 195.904-0.128 46.336-38.72 78.464-80.96 78.464zM298.624 152.32v541.248H215.808c-59.712 0-113.408-42.048-120.896-104.32a1376 1376 0 0 1 0.64-330.432c7.36-58.624 56.128-100.032 113.024-102.848 25.024-1.216 55.552-2.56 90.112-3.648z" p-id="5104" fill="#00aeec"></path></svg>